<svg width="453" height="92" viewBox="0 0 453 92" fill="none" xmlns="http://www.w3.org/2000/svg">
<path d="M440.649 32.77C442.929 33.67 445.209 34.6 447.489 35.56C449.949 36.76 451.629 38.26 452.529 40.06C452.709 40.3 452.799 40.63 452.799 41.05C452.799 42.73 452.229 43.93 451.089 44.65C450.549 44.95 449.949 45.1 449.289 45.1C448.269 45.1 446.349 44.26 443.529 42.58C440.709 40.9 438.489 40.06 436.869 40.06C435.669 40.06 434.499 40.39 433.359 41.05C432.819 41.41 432.549 41.92 432.549 42.58C432.549 43.42 433.029 44.38 433.989 45.46C435.009 46.54 435.909 47.23 436.689 47.53C442.929 49.75 447.669 52.36 450.909 55.36C451.989 56.38 452.529 57.79 452.529 59.59C452.529 61.69 451.869 63.82 450.549 65.98C449.289 68.14 447.189 69.97 444.249 71.47C441.369 72.91 438.399 73.63 435.339 73.63C429.939 73.63 426.159 71.38 423.999 66.88C423.819 66.52 423.729 66.1 423.729 65.62C423.729 64.6 424.209 63.67 425.169 62.83C426.129 61.93 427.149 61.45 428.229 61.39C429.069 61.27 429.819 61.81 430.479 63.01C431.259 64.39 431.889 65.2 432.369 65.44C433.449 65.98 434.679 66.25 436.059 66.25C438.159 66.25 439.989 65.71 441.549 64.63C443.169 63.49 443.979 62.02 443.979 60.22C443.979 58.84 442.599 57.52 439.839 56.26C436.779 54.94 433.749 53.65 430.749 52.39C427.509 50.71 425.259 48.58 423.999 46C423.639 45.22 423.459 44.44 423.459 43.66C423.459 40.96 425.169 38.35 428.589 35.83C431.829 33.43 435.009 32.23 438.129 32.23C439.089 32.23 439.929 32.41 440.649 32.77Z" fill="#E1662D"/>
<path d="M396.706 45.1C396.586 44.14 396.106 42.55 395.266 40.33C394.486 38.29 394.096 36.73 394.096 35.65C394.096 34.21 394.636 33.01 395.716 32.05C396.796 31.03 397.936 30.52 399.136 30.52C400.696 30.52 402.046 31.27 403.186 32.77C404.326 34.21 404.896 35.92 404.896 37.9C404.896 38.32 404.866 38.74 404.806 39.16C406.366 38.92 408.256 37.66 410.476 35.38C412.516 33.22 414.376 32.14 416.056 32.14C416.656 32.14 417.286 32.23 417.946 32.41C420.466 33.43 421.726 34.42 421.726 35.38C421.726 35.86 421.516 36.37 421.096 36.91C419.956 38.53 417.856 40.6 414.796 43.12C411.796 45.58 409.666 47.74 408.406 49.6C407.986 50.26 407.716 51.34 407.596 52.84C407.536 54.34 407.326 55.39 406.966 55.99C406.666 56.53 406.516 57.19 406.516 57.97C406.516 59.23 406.996 60.49 407.956 61.75C408.736 62.71 409.126 63.94 409.126 65.44C409.126 67.66 408.436 69.43 407.056 70.75C406.156 72.19 404.806 72.91 403.006 72.91C401.506 72.91 400.306 72.34 399.406 71.2C398.386 70.54 397.936 69.19 398.056 67.15C398.296 61.81 397.846 54.46 396.706 45.1Z" fill="#E1662D"/>
<path d="M376.796 61.21C371.876 58.39 369.416 53.92 369.416 47.8C369.416 46.24 369.626 44.71 370.046 43.21C370.586 41.29 371.576 39.28 373.016 37.18C374.696 34.84 375.626 33.46 375.806 33.04C376.706 31 378.296 29.98 380.576 29.98C383.276 29.98 385.616 31.09 387.596 33.31C389.576 35.53 391.076 38.5 392.096 42.22C392.456 43.6 392.636 44.95 392.636 46.27C392.636 50.95 390.386 55.66 385.886 60.4C384.806 61.54 383.126 62.11 380.846 62.11C379.226 62.11 377.876 61.81 376.796 61.21ZM379.676 52.3C380.156 52.42 380.606 52.48 381.026 52.48C383.726 52.48 385.076 50.83 385.076 47.53C385.076 44.71 384.026 42.13 381.926 39.79C381.746 39.67 381.536 39.61 381.296 39.61C380.336 39.61 379.136 40.57 377.696 42.49C376.316 44.35 375.626 46.18 375.626 47.98C375.626 50.26 376.976 51.7 379.676 52.3Z" fill="#E1662D"/>
<path d="M335.205 52.84C335.205 49.54 336.495 46.69 339.075 44.29C340.695 42.79 343.545 41.05 347.625 39.07C351.765 37.03 354.555 35.44 355.995 34.3C356.775 33.64 357.315 32.2 357.615 29.98C357.915 27.22 358.245 25.48 358.605 24.76C359.865 22.6 361.455 21.52 363.375 21.52C363.795 21.52 364.215 21.58 364.635 21.7C366.735 22.6 367.605 23.77 367.245 25.21C364.545 32.59 363.195 40.84 363.195 49.96C363.195 56.14 363.825 62.89 365.085 70.21C365.085 70.63 364.665 71.11 363.825 71.65C362.985 72.13 362.235 72.37 361.575 72.37C360.135 72.49 358.905 71.62 357.885 69.76C356.865 67.84 356.085 66.82 355.545 66.7C355.005 66.7 354.195 66.76 353.115 66.88C352.035 66.94 351.255 66.97 350.775 66.97C348.555 66.97 346.695 66.46 345.195 65.44C341.775 63.16 339.555 61.51 338.535 60.49C336.315 58.27 335.205 55.72 335.205 52.84ZM344.295 51.58C344.595 53.44 345.555 55.12 347.175 56.62C348.795 58.12 350.565 58.87 352.485 58.87C353.205 58.87 353.925 58.75 354.645 58.51C354.525 57.55 354.465 56.53 354.465 55.45C354.465 54.13 354.645 52.15 355.005 49.51C355.365 46.81 355.545 44.77 355.545 43.39C352.665 43.39 350.085 44.05 347.805 45.37C345.045 46.93 343.875 49 344.295 51.58Z" fill="#E1662D"/>
<path d="M325.35 74.8898C324.87 74.5898 324.36 73.9298 323.82 72.9098C323.34 72.0698 322.89 71.6498 322.47 71.6498C319.29 71.1098 316.08 70.5698 312.84 70.0298C309.3 69.1298 306.78 67.3898 305.28 64.8098C304.32 63.5498 303.84 61.8698 303.84 59.7698C303.84 56.7098 304.59 54.1898 306.09 52.2098C309.69 47.3498 314.97 44.9198 321.93 44.9198C324.93 44.9198 326.37 45.0098 326.25 45.1898C326.73 44.4698 326.97 43.4498 326.97 42.1298C326.97 40.5698 326.52 39.6998 325.62 39.5198C324.72 39.2798 323.82 39.1598 322.92 39.1598C321.36 39.1598 319.62 39.5498 317.7 40.3298C315.84 41.0498 314.01 41.7398 312.21 42.3998C311.91 42.5198 311.64 42.5798 311.4 42.5798C310.44 42.5798 309.66 41.8898 309.06 40.5098C308.58 39.4298 308.34 38.2598 308.34 36.9998C308.34 36.2198 308.43 35.7398 308.61 35.5598C312.57 32.8598 317.04 31.5098 322.02 31.5098C327.24 31.5098 330.75 33.3698 332.55 37.0898C333.51 39.1298 333.99 41.3498 333.99 43.7498C333.99 45.7298 333.6 48.5198 332.82 52.1198C331.92 56.0798 331.38 58.9598 331.2 60.7598C330.9 65.2598 330.6 68.3198 330.3 69.9398C329.58 73.5998 328.44 75.4298 326.88 75.4298C326.4 75.4298 325.89 75.2498 325.35 74.8898ZM323.73 63.9998C323.91 63.1598 324.3 61.6598 324.9 59.4998C325.44 57.8198 325.71 56.4398 325.71 55.3598C325.71 54.0998 325.44 52.8398 324.9 51.5798C321.84 52.2398 318.81 52.8698 315.81 53.4698C312.27 54.4898 310.47 56.5898 310.41 59.7698C310.35 61.1498 311.67 62.3198 314.37 63.2798C316.71 64.1798 319.05 64.6298 321.39 64.6298C322.77 64.6298 323.55 64.4198 323.73 63.9998Z" fill="#E1662D"/>
<path d="M277.087 45.1C276.967 44.14 276.487 42.55 275.647 40.33C274.867 38.29 274.477 36.73 274.477 35.65C274.477 34.21 275.017 33.01 276.097 32.05C277.177 31.03 278.317 30.52 279.517 30.52C281.077 30.52 282.427 31.27 283.567 32.77C284.707 34.21 285.277 35.92 285.277 37.9C285.277 38.32 285.247 38.74 285.187 39.16C286.747 38.92 288.637 37.66 290.857 35.38C292.897 33.22 294.757 32.14 296.437 32.14C297.037 32.14 297.667 32.23 298.327 32.41C300.847 33.43 302.107 34.42 302.107 35.38C302.107 35.86 301.897 36.37 301.477 36.91C300.337 38.53 298.237 40.6 295.177 43.12C292.177 45.58 290.047 47.74 288.787 49.6C288.367 50.26 288.097 51.34 287.977 52.84C287.917 54.34 287.707 55.39 287.347 55.99C287.047 56.53 286.897 57.19 286.897 57.97C286.897 59.23 287.377 60.49 288.337 61.75C289.117 62.71 289.507 63.94 289.507 65.44C289.507 67.66 288.817 69.43 287.437 70.75C286.537 72.19 285.187 72.91 283.387 72.91C281.887 72.91 280.687 72.34 279.787 71.2C278.767 70.54 278.317 69.19 278.437 67.15C278.677 61.81 278.227 54.46 277.087 45.1Z" fill="#E1662D"/>
<path d="M243.754 72.7299C243.034 72.6099 242.254 71.6499 241.414 69.8499C241.174 67.9899 240.964 63.8499 240.784 57.4299C240.664 52.3299 240.244 48.1599 239.524 44.9199C239.224 44.1999 238.924 43.5099 238.624 42.8499C238.204 41.9499 237.994 41.1699 237.994 40.5099C237.994 40.2099 238.054 39.9399 238.174 39.6999C238.294 39.3999 238.564 39.0099 238.984 38.5299C239.464 38.0499 239.794 37.6599 239.974 37.3599C240.034 36.4599 240.064 35.4699 240.064 34.3899C240.064 33.5499 240.034 32.2599 239.974 30.5199C239.914 28.7199 239.884 27.3699 239.884 26.4699C239.884 24.1299 240.064 22.0899 240.424 20.3499C240.664 19.2699 241.294 18.1899 242.314 17.1099C243.394 15.9699 244.444 15.3999 245.464 15.3999C246.244 15.3999 246.934 15.7899 247.534 16.5699C248.794 17.8299 249.424 19.4199 249.424 21.3399C249.424 22.3599 249.154 24.0399 248.614 26.3799C248.074 28.6599 247.804 30.3699 247.804 31.5099C247.804 33.1899 248.164 34.6599 248.884 35.9199C254.464 36.2199 259.234 37.3899 263.194 39.4299C267.874 41.8299 270.964 45.2199 272.464 49.5999C272.824 50.6199 273.004 51.6699 273.004 52.7499C273.004 55.0299 272.314 57.3699 270.934 59.7699C269.614 61.9299 267.934 63.7299 265.894 65.1699C258.514 70.3899 252.184 72.9999 246.904 72.9999C245.824 72.9999 244.774 72.9099 243.754 72.7299ZM250.324 63.7299C253.864 63.4899 257.014 62.4699 259.774 60.6699C263.014 58.5099 264.574 55.9299 264.454 52.9299C264.394 50.2899 262.744 48.0099 259.504 46.0899C256.504 44.2899 253.294 43.3899 249.874 43.3899C249.214 43.3899 248.584 43.4199 247.984 43.4799C247.984 52.5999 248.764 59.3499 250.324 63.7299Z" fill="#E1662D"/>
<path d="M228.319 74.8898C227.839 74.5898 227.329 73.9298 226.789 72.9098C226.309 72.0698 225.859 71.6498 225.439 71.6498C222.259 71.1098 219.049 70.5698 215.809 70.0298C212.269 69.1298 209.749 67.3898 208.249 64.8098C207.289 63.5498 206.809 61.8698 206.809 59.7698C206.809 56.7098 207.559 54.1898 209.059 52.2098C212.659 47.3498 217.939 44.9198 224.899 44.9198C227.899 44.9198 229.339 45.0098 229.219 45.1898C229.699 44.4698 229.939 43.4498 229.939 42.1298C229.939 40.5698 229.489 39.6998 228.589 39.5198C227.689 39.2798 226.789 39.1598 225.889 39.1598C224.329 39.1598 222.589 39.5498 220.669 40.3298C218.809 41.0498 216.979 41.7398 215.179 42.3998C214.879 42.5198 214.609 42.5798 214.369 42.5798C213.409 42.5798 212.629 41.8898 212.029 40.5098C211.549 39.4298 211.309 38.2598 211.309 36.9998C211.309 36.2198 211.399 35.7398 211.579 35.5598C215.539 32.8598 220.009 31.5098 224.989 31.5098C230.209 31.5098 233.719 33.3698 235.519 37.0898C236.479 39.1298 236.959 41.3498 236.959 43.7498C236.959 45.7298 236.569 48.5198 235.789 52.1198C234.889 56.0798 234.349 58.9598 234.169 60.7598C233.869 65.2598 233.569 68.3198 233.269 69.9398C232.549 73.5998 231.409 75.4298 229.849 75.4298C229.369 75.4298 228.859 75.2498 228.319 74.8898ZM226.699 63.9998C226.879 63.1598 227.269 61.6598 227.869 59.4998C228.409 57.8198 228.679 56.4398 228.679 55.3598C228.679 54.0998 228.409 52.8398 227.869 51.5798C224.809 52.2398 221.779 52.8698 218.779 53.4698C215.239 54.4898 213.439 56.5898 213.379 59.7698C213.319 61.1498 214.639 62.3198 217.339 63.2798C219.679 64.1798 222.019 64.6298 224.359 64.6298C225.739 64.6298 226.519 64.4198 226.699 63.9998Z" fill="#E1662D"/>
<path d="M192.385 39.8799C192.445 38.0799 192.175 35.4099 191.575 31.8699C190.975 28.2699 190.675 25.6899 190.675 24.1299C190.675 21.9099 191.095 19.9599 191.935 18.2799C192.895 16.3599 194.545 15.3999 196.885 15.3999C199.285 15.3999 200.575 16.6599 200.755 19.1799C200.815 19.5399 200.755 20.1699 200.575 21.0699C200.395 21.9699 200.305 22.5399 200.305 22.7799C200.305 35.6199 200.305 42.0399 200.305 42.0399C200.185 44.1399 200.215 46.9299 200.395 50.4099C200.635 54.5499 200.755 57.2799 200.755 58.5999C200.755 63.4599 200.005 67.5099 198.505 70.7499C197.845 72.2499 196.645 72.9999 194.905 72.9999C193.765 72.9999 192.625 72.6999 191.485 72.0999C190.405 71.4399 189.865 70.2699 189.865 68.5899C189.865 68.1099 189.955 67.6299 190.135 67.1499C191.215 63.4299 191.845 58.9299 192.025 53.6499C192.145 49.0299 192.265 44.4399 192.385 39.8799Z" fill="#E1662D"/>
<path d="M174.543 39.8799C174.603 38.0799 174.333 35.4099 173.733 31.8699C173.133 28.2699 172.833 25.6899 172.833 24.1299C172.833 21.9099 173.253 19.9599 174.093 18.2799C175.053 16.3599 176.703 15.3999 179.043 15.3999C181.443 15.3999 182.733 16.6599 182.913 19.1799C182.973 19.5399 182.913 20.1699 182.733 21.0699C182.553 21.9699 182.463 22.5399 182.463 22.7799C182.463 35.6199 182.463 42.0399 182.463 42.0399C182.343 44.1399 182.373 46.9299 182.553 50.4099C182.793 54.5499 182.913 57.2799 182.913 58.5999C182.913 63.4599 182.163 67.5099 180.663 70.7499C180.003 72.2499 178.803 72.9999 177.063 72.9999C175.923 72.9999 174.783 72.6999 173.643 72.0999C172.563 71.4399 172.023 70.2699 172.023 68.5899C172.023 68.1099 172.113 67.6299 172.293 67.1499C173.373 63.4299 174.003 58.9299 174.183 53.6499C174.303 49.0299 174.423 44.4399 174.543 39.8799Z" fill="#E1662D"/>
<path d="M153.554 60.3101C148.634 57.4901 146.174 53.0201 146.174 46.9001C146.174 45.3401 146.384 43.8101 146.804 42.3101C147.344 40.3901 148.334 38.3801 149.774 36.2801C151.454 33.9401 152.384 32.5601 152.564 32.1401C153.464 30.1001 155.054 29.0801 157.334 29.0801C160.034 29.0801 162.374 30.1901 164.354 32.4101C166.334 34.6301 167.834 37.6001 168.854 41.3201C169.214 42.7001 169.394 44.0501 169.394 45.3701C169.394 50.0501 167.144 54.7601 162.644 59.5001C161.564 60.6401 159.884 61.2101 157.604 61.2101C155.984 61.2101 154.634 60.9101 153.554 60.3101ZM156.434 51.4001C156.914 51.5201 157.364 51.5801 157.784 51.5801C160.484 51.5801 161.834 49.9301 161.834 46.6301C161.834 43.8101 160.784 41.2301 158.684 38.8901C158.504 38.7701 158.294 38.7101 158.054 38.7101C157.094 38.7101 155.894 39.6701 154.454 41.5901C153.074 43.4501 152.384 45.2801 152.384 47.0801C152.384 49.3601 153.734 50.8001 156.434 51.4001ZM154.094 66.4301C154.994 67.0901 155.444 68.3801 155.444 70.3001C155.444 72.4601 154.784 73.9001 153.464 74.6201C152.804 75.0401 152.114 75.2501 151.394 75.2501C150.314 75.2501 149.384 74.7401 148.604 73.7201C147.824 72.7601 147.344 71.6501 147.164 70.3901C146.984 68.8301 147.374 67.6301 148.334 66.7901C149.114 66.0701 150.134 65.7101 151.394 65.7101C152.474 65.7101 153.374 65.9501 154.094 66.4301ZM165.794 66.6101C166.634 67.1501 167.054 68.3801 167.054 70.3001C167.054 72.4601 166.394 73.9001 165.074 74.6201C164.414 75.0401 163.724 75.2501 163.004 75.2501C161.924 75.2501 160.994 74.7401 160.214 73.7201C159.494 72.7601 159.044 71.6501 158.864 70.3901C158.684 68.8901 159.044 67.6901 159.944 66.7901C160.724 66.0701 161.744 65.7101 163.004 65.7101C164.084 65.7101 165.014 66.0101 165.794 66.6101Z" fill="#E1662D"/>
<path d="M111.26 49.6001C112.22 43.9601 114.71 39.3401 118.73 35.7401C122.03 32.8001 124.28 30.9101 125.48 30.0701C128.3 28.0901 130.91 27.1001 133.31 27.1001C134.57 27.1001 135.77 27.3701 136.91 27.9101C137.81 28.2701 138.26 28.9901 138.26 30.0701C138.26 30.4901 138.2 30.9401 138.08 31.4201C137.36 33.5801 135.8 35.2601 133.4 36.4601C129.38 38.3801 127.19 39.4601 126.83 39.7001C122.39 43.0601 120.05 46.6601 119.81 50.5001C119.57 53.7401 120.2 56.5301 121.7 58.8701C122.48 60.1301 123.71 61.1201 125.39 61.8401C126.89 62.3201 128.42 62.8301 129.98 63.3701C130.52 63.6101 131.09 63.7301 131.69 63.7301C133.01 63.7301 134.75 62.8901 136.91 61.2101C139.13 59.4701 140.78 58.5701 141.86 58.5101C143.3 58.3901 144.02 59.0501 144.02 60.4901C144.02 62.0501 143.48 63.6701 142.4 65.3501C140.06 68.9501 136.43 70.7501 131.51 70.7501C128.93 70.7501 125.96 70.2701 122.6 69.3101C119 68.2901 116.15 66.2801 114.05 63.2801C112.01 60.2801 110.99 56.8301 110.99 52.9301C110.99 51.8501 111.08 50.7401 111.26 49.6001Z" fill="#E1662D"/>
<path fill-rule="evenodd" clip-rule="evenodd" d="M48.8053 0.286354C48.1183 0.599354 47.5553 1.43735 47.5553 2.14735C47.5553 3.06135 49.9633 3.56935 55.8053 3.88735C72.4413 4.79335 84.3443 13.8104 90.5253 30.1894C93.4523 37.9474 93.6993 49.7584 91.1053 57.9394C90.1023 61.1014 89.0053 63.6844 88.6683 63.6784C88.3313 63.6724 86.8303 60.4104 85.3323 56.4284C80.1813 42.7324 68.2623 27.6504 59.0133 23.1254C53.9703 20.6574 53.0853 20.5134 49.5193 21.5824C47.3573 22.2294 45.1083 23.6564 44.5213 24.7524C43.9353 25.8484 43.0363 26.4874 42.5253 26.1714C40.9083 25.1714 33.8163 27.8574 30.8013 30.6124C29.2053 32.0694 25.3833 36.8454 22.3083 41.2254C16.5753 49.3924 13.0493 53.1674 8.41532 56.1024L5.77532 57.7754L4.53332 52.5974C-0.416684 31.9634 14.7053 9.79535 36.8063 5.28935C41.4163 4.34935 43.1473 3.54135 43.4063 2.21035C43.7213 0.585354 43.2213 0.473354 38.4063 1.08735C35.4633 1.46335 29.9053 3.25835 26.0553 5.07835C0.383314 17.2094 -7.60668 45.7734 7.89332 70.0034C9.81832 73.0124 13.0953 76.7604 15.1743 78.3324C17.2543 79.9034 20.3283 82.5964 22.0063 84.3154C25.2523 87.6444 27.9863 88.8284 33.4523 89.2714C35.3203 89.4224 37.1203 89.9164 37.4523 90.3684C37.7843 90.8194 42.3303 91.3194 47.5553 91.4794C67.2453 92.0804 82.0863 83.9914 90.8553 67.8804C96.0483 58.3384 97.9433 44.4224 95.4953 33.8044C91.2683 15.4694 75.0913 1.14135 57.4843 0.139354C53.3983 -0.0936456 49.4933 -0.0276457 48.8053 0.286354ZM40.2573 8.38635C39.6463 9.40435 41.0153 18.4824 41.9153 19.3824C42.2853 19.7524 43.0863 19.5584 43.6943 18.9504C44.4463 18.1984 44.5213 16.3274 43.9273 13.0994C43.1193 8.70235 41.3953 6.48935 40.2573 8.38635ZM50.9683 14.1814C50.0283 15.6174 49.6253 17.4194 50.0193 18.4314C50.6393 20.0224 50.8873 19.9654 52.6293 17.8284C54.6633 15.3354 55.2273 11.6894 53.5783 11.6894C53.0413 11.6894 51.8663 12.8114 50.9683 14.1814ZM32.5553 15.8214C32.5553 17.4324 36.5493 23.6894 37.5783 23.6894C39.5693 23.6894 39.5553 21.4254 37.5443 18.1714C35.4803 14.8324 32.5553 13.4544 32.5553 15.8214ZM57.0683 30.3094C58.4193 32.8504 59.2803 35.3254 58.9813 35.8094C57.9463 37.4844 55.7693 36.6794 55.2003 34.4114C54.3463 31.0094 48.8183 26.0264 47.4333 27.4114C46.6223 28.2224 47.1513 29.5484 49.4083 32.3564C52.6843 36.4334 53.8383 40.6904 51.8593 41.3944C51.2013 41.6284 49.6263 39.8784 48.3593 37.5044L46.0553 33.1894L45.7553 38.3644C45.5353 42.1614 46.3343 46.1534 48.7553 53.3644C51.7973 62.4204 52.2733 63.2144 54.8383 63.5094C61.4423 64.2674 75.2843 56.2704 77.0623 50.6684C77.9233 47.9564 72.1403 39.5284 64.1643 31.8694C56.1753 24.1984 53.5073 23.6124 57.0683 30.3094ZM35.9113 31.6144C34.1813 32.6684 31.6173 35.0294 30.2123 36.8604C21.8553 47.7514 17.5553 53.9564 17.5553 55.1244C17.5553 57.4154 25.4953 64.5154 30.9323 67.0884C33.7953 68.4424 37.9113 69.6944 40.0783 69.8704C43.8753 70.1774 44.0693 70.0434 45.4363 66.1424C46.3933 63.4094 46.6013 60.8104 46.0763 58.1424C45.6493 55.9684 45.0993 54.8644 44.8543 55.6894C43.7343 59.4634 42.0733 61.6464 39.5163 62.7054C32.9763 65.4144 28.1673 61.1374 28.0973 52.5484C28.0653 48.6634 28.4903 47.1734 29.8723 46.3164C31.3813 45.3804 32.0673 45.6564 33.9103 47.9394C35.4863 49.8914 37.0483 50.6894 39.2933 50.6894C41.2503 50.6894 42.8443 51.3564 43.4753 52.4394C44.8783 54.8484 44.7743 53.2274 43.0753 46.1894C42.2783 42.8894 41.6103 37.8274 41.5913 34.9394C41.5513 29.0504 40.8183 28.6214 35.9113 31.6144ZM34.2223 34.3564C33.8553 34.7224 33.5553 36.9724 33.5553 39.3564C33.5553 43.0384 33.8593 43.6894 35.5763 43.6894C38.1093 43.6894 40.0293 39.7134 39.1633 36.2634C38.5493 33.8184 35.8153 32.7634 34.2223 34.3564ZM48.5553 69.4634C48.5553 69.8894 46.6153 73.6414 44.2453 77.8014L39.9353 85.3644L44.3123 86.6574C50.6473 88.5284 53.9603 86.9264 53.0623 82.4264C51.4133 74.1564 48.5553 65.9384 48.5553 69.4634Z" fill="#F3C2AB"/>
<path fill-rule="evenodd" clip-rule="evenodd" d="M48.1283 1.57124C47.2803 2.94324 46.5743 2.79724 55.7233 3.13824C72.9883 3.78124 87.5243 15.8022 92.0133 33.1492C94.5633 43.0032 93.4163 56.4742 89.3863 64.0042C88.3193 65.9992 88.1063 65.7772 86.4673 60.9572C80.1623 42.4082 62.7113 21.6892 53.3923 21.6892C50.1053 21.6892 44.5553 24.2172 44.5553 25.7152C44.5553 26.2512 43.1323 26.6892 41.3933 26.6892C35.9653 26.6892 30.3423 30.9122 24.4853 39.3872C17.7273 49.1662 13.0403 54.3872 9.26534 56.3392C4.71934 58.6902 4.05534 57.1642 4.05834 44.3872C4.06134 34.1862 4.30734 32.6872 6.82434 27.5582C12.4543 16.0872 26.3403 5.86924 38.5913 4.18424C45.6883 3.20824 45.0273 1.25724 37.8513 1.99824C19.2323 3.92024 1.99534 22.1542 0.771336 41.2232C-1.02066 69.1502 21.6103 91.1462 51.8423 90.8622C74.2773 90.6512 92.2173 74.4932 95.6513 51.4042C97.7143 37.5342 93.4873 24.0502 83.7943 13.5812C76.1323 5.30524 68.0483 1.46124 57.0923 0.886241C51.6323 0.600241 48.5843 0.832241 48.1283 1.57124ZM41.0773 8.65324C40.1143 10.2122 41.4143 18.6892 42.6163 18.6892C43.1333 18.6892 43.5483 16.7762 43.5403 14.4392C43.5223 9.66624 42.2703 6.72324 41.0773 8.65324ZM50.7163 15.2362C49.2503 18.4532 49.2623 18.6892 50.8943 18.6892C51.9973 18.6892 54.5553 14.8122 54.5553 13.1422C54.5553 11.5602 51.6743 13.1322 50.7163 15.2362ZM33.5773 16.4392C33.6063 18.6882 37.1903 23.3872 38.1473 22.4302C38.9613 21.6172 35.5423 14.6892 34.3283 14.6892C33.9033 14.6892 33.5653 15.4772 33.5773 16.4392ZM55.5493 28.8392C58.5193 32.9392 59.4843 36.6892 57.5683 36.6892C57.0263 36.6892 55.9593 35.2272 55.1973 33.4392C53.5133 29.4862 49.1023 25.2332 47.6293 26.1432C45.9343 27.1912 46.3713 28.8642 49.5733 33.5892C51.2133 36.0102 52.5553 38.5972 52.5553 39.3392C52.5553 41.8412 50.7643 40.7142 48.8373 37.0002C47.7843 34.9712 46.3233 33.1122 45.5913 32.8682C43.0113 32.0082 45.2083 44.7372 50.4683 61.1302C53.2813 69.8982 55.8633 79.4562 56.2053 82.3702L56.8283 87.6692L60.9423 87.0122C69.1253 85.7042 80.0953 78.3572 85.7763 70.3782C87.6823 67.7012 87.7213 67.3612 86.2113 66.5162C85.3003 66.0072 84.5553 64.8212 84.5553 63.8822C84.5553 62.9432 82.3383 57.6782 79.6283 52.1822C72.7293 38.1912 60.1913 24.6892 54.0983 24.6892C52.9233 24.6892 53.2793 25.7052 55.5493 28.8392ZM39.5683 29.4262C35.8043 30.1292 32.1063 33.1592 27.9393 38.9552C19.8363 50.2272 14.2943 56.4672 10.4883 58.6072L6.51334 60.8412L9.24634 65.8632C12.5273 71.8922 19.5413 78.4252 26.1923 81.6482C28.8673 82.9442 31.8613 84.3992 32.8463 84.8812C35.3473 86.1052 35.7933 85.6652 40.9033 76.9392C47.5003 65.6722 47.9843 62.4772 44.8653 50.7712C43.4253 45.3682 42.3103 38.4632 42.3083 34.9392C42.3063 31.5022 42.2493 28.7502 42.1803 28.8252C42.1113 28.9002 40.9363 29.1702 39.5683 29.4262ZM34.7673 34.8772C33.0773 36.5672 33.2303 42.3502 34.9823 43.0232C37.1133 43.8402 38.7333 41.2422 38.3733 37.5812C38.0243 34.0302 36.6473 32.9972 34.7673 34.8772ZM28.5533 48.6932C27.2713 51.0882 28.8723 58.2152 31.3033 60.9392C33.4443 63.3382 39.0433 63.2012 41.5553 60.6892C43.8943 58.3502 44.1893 53.4602 42.0963 51.7232C41.2273 51.0022 39.4563 50.7712 37.7183 51.1532C35.1793 51.7112 34.7153 51.4612 34.1583 49.2422C33.3753 46.1242 30.0993 45.8042 28.5533 48.6932ZM46.8733 71.5482C45.6743 74.1012 43.2973 78.5112 41.5933 81.3502L38.4933 86.5102L43.5883 87.6032C48.9993 88.7632 53.1303 88.2582 53.8443 86.3492C54.3153 85.0892 51.0333 70.3422 49.8083 68.2142C49.3003 67.3322 48.3453 68.4182 46.8733 71.5482Z" fill="#E1662D"/>
</svg>
